<?xml version="1.0"?>
<svg width="50" height="50" xmlns="http://www.w3.org/2000/svg" xmlns:svg="http://www.w3.org/2000/svg">
 <g class="layer">
  <title>Layer 1</title>
  <path d="m20.38,20.09l1.85,0l0,13.02l-1.85,0l0,-13.02z" fill="#151515" id="svg_1"/>
  <path d="m24.08,20.09l1.84,0l0,13.02l-1.84,0l0,-13.02z" fill="#151515" id="svg_2"/>
  <path d="m27.77,20.09l1.85,0l0,13.02l-1.85,0l0,-13.02z" fill="#151515" id="svg_3"/>
  <path d="m13,15.2l24,0l0,1.63l-24,0l0,-1.63z" fill="#151515" id="svg_4"/>
  <path d="m29.55,16.02l-1.72,0l0,-1.63c0,-0.49 -0.43,-0.87 -0.98,-0.87l-3.7,0c-0.55,0 -0.98,0.38 -0.98,0.87l0,1.63l-1.72,0l0,-1.63c0,-1.3 1.23,-2.39 2.7,-2.39l3.7,0c1.47,0 2.7,1.09 2.7,2.39l0,1.63z" fill="#151515" id="svg_5"/>
  <path d="m30.54,38l-11.08,0c-1.48,0 -2.77,-1.09 -2.89,-2.39l-1.72,-19.54l1.84,-0.11l1.73,19.54c0.06,0.49 0.55,0.87 1.04,0.87l11.08,0c0.55,0 1.04,-0.43 1.04,-0.87l1.73,-19.54l1.84,0.11l-1.72,19.54c-0.12,1.36 -1.41,2.39 -2.89,2.39z" fill="#151515" id="svg_6"/>
 </g>
</svg>